<svg width="362" height="198" viewBox="0 0 362 198" fill="none" xmlns="http://www.w3.org/2000/svg">
<g clip-path="url(#clip0_222_7)">
<path d="M110.69 257.549C81.3563 315.549 28.6897 336.383 -47.3103 320.049C-123.31 303.716 -141.31 268.383 -101.31 214.049C-61.3103 159.716 -26.977 121.383 1.68965 99.0494C30.3563 76.7161 63.023 83.0494 99.6897 118.049C136.356 153.049 140.023 199.549 110.69 257.549Z" fill="#1F1695"/>
<path d="M454.927 274.398C410.593 334.398 356.26 350.732 291.927 323.398C227.593 296.065 203.093 255.232 218.427 200.898C233.76 146.565 265.093 103.065 312.427 70.3985C359.76 37.7318 406.427 48.5651 452.427 102.898C498.427 157.232 499.26 214.398 454.927 274.398Z" fill="#F95225"/>
<path d="M285.03 311.492C255.697 330.158 222.697 352.658 186.03 378.992C149.364 405.325 108.364 395.992 63.0303 350.992C17.697 305.992 16.3636 258.658 59.0303 208.992C101.697 159.325 148.53 139.992 199.53 150.992C250.53 161.992 284.864 186.825 302.53 225.492C320.197 264.158 314.364 292.825 285.03 311.492Z" fill="#FF8987"/>
</g>
<defs>
<clipPath id="clip0_222_7">
<rect width="543" height="500" fill="white" transform="translate(-181)"/>
</clipPath>
</defs>
</svg>
