<svg width="523" height="212" viewBox="0 0 523 212" fill="none" xmlns="http://www.w3.org/2000/svg">
    <path
        d="M58.2721 305.398C40.7383 302.556 26.5403 286.494 12.5338 270.32C-1.4727 254.146 -15.4287 238.059 -17.9089 218.795C-20.4397 199.445 -11.3938 177.091 4.62177 164.531C20.6826 151.828 43.9551 148.894 66.4698 144.655C88.9845 140.417 110.888 134.905 124.351 142.205C137.769 149.649 142.651 169.96 147.552 188.98C152.548 207.945 157.468 225.675 152.597 241.765C147.63 257.911 132.822 272.329 114.864 284.854C96.9069 297.379 75.8511 308.098 58.2721 305.398Z"
        fill="#1F1695" />
    <path
        d="M417.514 251.501C413.793 270.276 394.589 285.713 374.612 301.712C354.635 317.712 333.741 334.319 310.808 336.987C288.065 339.755 263.284 328.584 248.114 310.722C232.845 293.05 227.474 268.596 220.512 245.121C213.648 221.457 205.383 198.871 211.805 181.618C218.228 164.365 239.529 152.544 259.158 137.447C278.741 122.207 296.797 103.646 313.84 104.904C330.883 106.162 346.96 127.382 360.658 144.601C374.546 161.918 386.201 175.187 397.837 192.9C409.473 210.614 421.379 232.681 417.514 251.501Z"
        fill="#F95225" />
    <g clip-path="url(#clip0_167_166)">
        <path
            d="M265.952 321.77C252.314 317.755 241.053 305.223 229.876 292.013C218.698 278.803 207.666 264.784 209.249 251.903C210.927 238.988 225.22 227.209 235.606 213.253C245.992 199.297 252.408 183.293 264.511 174.778C276.71 166.23 294.63 165.265 308.764 171.59C322.96 177.784 333.438 191.459 343.368 205.112C353.264 218.669 362.455 232.37 365.272 247.902C367.994 263.468 364.116 280.839 354.138 292.597C344.194 304.451 328.115 310.597 311.956 315.906C295.796 321.216 279.651 325.656 265.952 321.77Z"
            fill="#FF8987" />
    </g>
    <path
        d="M251.314 190.769C271.231 204.166 294.361 215.501 299.887 231.417C305.412 247.218 293.333 267.713 280.483 287.751C267.505 307.788 253.755 327.482 234.352 334.238C214.82 341.108 189.634 334.925 170.487 324.276C151.341 313.628 138.234 298.399 126.54 281.797C114.847 265.194 104.567 247.103 106.109 229.585C107.651 211.952 121.143 194.777 138.491 180.922C155.838 167.182 177.169 156.763 196.059 159.396C215.077 161.915 231.525 177.373 251.314 190.769Z"
        fill="#FAB500" />
    <defs>
        <clipPath id="clip0_167_166">
            <rect width="203.649" height="203.649" fill="white"
                transform="translate(417.672 310.221) rotate(160.439)" />
        </clipPath>
    </defs>
</svg>