<?xml version="1.0" standalone="no"?>
<!DOCTYPE svg PUBLIC "-//W3C//DTD SVG 20010904//EN"
 "http://www.w3.org/TR/2001/REC-SVG-20010904/DTD/svg10.dtd">
<svg version="1.0" xmlns="http://www.w3.org/2000/svg"
 width="230.000000pt" height="207.000000pt" viewBox="0 0 230.000000 207.000000"
 preserveAspectRatio="xMidYMid meet">

<g transform="translate(0.000000,207.000000) scale(0.100000,-0.100000)"
fill="#1F1695" stroke="none">
<path d="M190 2061 c-69 -22 -130 -73 -166 -141 -17 -32 -19 -62 -19 -345 0
-299 1 -311 22 -350 25 -47 74 -95 123 -121 33 -18 78 -19 1000 -19 922 0 967
1 1000 19 49 26 98 74 123 121 21 39 22 51 22 350 0 299 -1 311 -22 350 -25
47 -74 95 -123 121 -33 18 -80 19 -985 21 -522 1 -961 -2 -975 -6z m1920 -113
c33 -17 51 -35 68 -68 21 -42 22 -54 22 -305 0 -251 -1 -263 -23 -305 -16 -33
-34 -51 -67 -68 l-44 -22 -916 0 -916 0 -44 23 c-33 16 -51 34 -67 67 -22 42
-23 54 -23 305 0 251 1 263 23 305 16 33 34 51 67 68 l44 22 916 0 916 0 44
-22z"/>
<path d="M190 981 c-69 -22 -130 -73 -166 -141 -17 -32 -19 -62 -19 -345 0
-299 1 -311 22 -350 25 -47 74 -95 123 -121 33 -18 78 -19 1000 -19 922 0 967
1 1000 19 49 26 98 74 123 121 21 39 22 51 22 350 0 299 -1 311 -22 350 -25
47 -74 95 -123 121 -33 18 -80 19 -985 21 -522 1 -961 -2 -975 -6z m1920 -113
c33 -17 51 -35 68 -68 21 -42 22 -54 22 -305 0 -251 -1 -263 -23 -305 -16 -33
-34 -51 -67 -68 l-44 -22 -916 0 -916 0 -44 23 c-33 16 -51 34 -67 67 -22 42
-23 54 -23 305 0 251 1 263 23 305 16 33 34 51 67 68 l44 22 916 0 916 0 44
-22z"/>
</g>
</svg>
