<svg width="280" height="338" viewBox="0 0 280 338" fill="none" xmlns="http://www.w3.org/2000/svg">
<g filter="url(#filter0_d_173_124)">
<path d="M36 32.0771H134.937C136.35 32.0771 137.762 31.9902 139.121 31.6019C143.435 30.3693 153.239 26.2493 155.962 13.8631C159.342 -1.5087 163.758 1.75198 167.471 9.45048C173.534 22.0209 184.745 32.0771 198.701 32.0771H244C260.569 32.0771 274 45.5086 274 62.0771V299C274 315.569 260.569 329 244 329H36C19.4315 329 6 315.569 6 299V62.0771C6 45.5086 19.4315 32.0771 36 32.0771Z" stroke="black" stroke-opacity="0.25" stroke-width="2" shape-rendering="crispEdges"/>
</g>
<defs>
<filter id="filter0_d_173_124" x="0.3" y="0.299848" width="279.4" height="337.4" filterUnits="userSpaceOnUse" color-interpolation-filters="sRGB">
<feFlood flood-opacity="0" result="BackgroundImageFix"/>
<feColorMatrix in="SourceAlpha" type="matrix" values="0 0 0 0 0 0 0 0 0 0 0 0 0 0 0 0 0 0 127 0" result="hardAlpha"/>
<feOffset dy="3"/>
<feGaussianBlur stdDeviation="2.35"/>
<feComposite in2="hardAlpha" operator="out"/>
<feColorMatrix type="matrix" values="0 0 0 0 0 0 0 0 0 0 0 0 0 0 0 0 0 0 0.35 0"/>
<feBlend mode="normal" in2="BackgroundImageFix" result="effect1_dropShadow_173_124"/>
<feBlend mode="normal" in="SourceGraphic" in2="effect1_dropShadow_173_124" result="shape"/>
</filter>
</defs>
</svg>
