<svg id="Layer_1" data-name="Layer 1" xmlns="http://www.w3.org/2000/svg" viewBox="0 0 1102.41 723.52"><defs><style>.cls-1{fill:#f46f16;}.cls-2{fill:#632d0b;}</style></defs><polygon class="cls-1" points="185.16 0 141.85 75 228.46 75 185.16 0"/><polygon class="cls-1" points="357.16 0 313.85 75 400.46 75 357.16 0"/><polygon class="cls-1" points="400.66 89 141.85 89 229.32 240.5 313.19 240.5 400.66 89"/><polygon class="cls-2" points="313.19 240.5 229.32 240.5 271.25 313.13 313.19 240.5"/><path class="cls-1" d="M338.42,266.58,313.06,310.5l-41.93,72.63L229.2,310.5l-24.11-41.76C204.86,297.9,200.37,368.32,154,440,101.18,521.65,26.72,554.37.34,564.56L42.61,720.81,204.44,724c30.89-26.89,94-89.21,128.56-191C374.68,410.32,349.62,305.08,338.42,266.58Z" transform="translate(-0.34 -0.5)"/><path class="cls-1" d="M426.5,313.71H458V421.83h.72a58.42,58.42,0,0,1,22.55-22.2,64.86,64.86,0,0,1,32.22-8.95c23.27,0,60.5,14.32,60.5,74.11v103.1h-31.5V468.37c0-27.93-10.38-51.56-40.1-51.56-20.4,0-36.51,14.32-42.24,31.51-1.79,4.3-2.15,8.95-2.15,15V567.89H426.5Z" transform="translate(-0.34 -0.5)"/><path class="cls-1" d="M770.18,520.64c0,17.9.35,33.65,1.43,47.25H743.68l-1.79-28.28h-.71c-8.24,14-26.49,32.22-57.28,32.22-27.21,0-59.79-15-59.79-75.9V394.62h31.5v95.94c0,32.94,10,55.14,38.67,55.14,21.12,0,35.8-14.68,41.53-28.64A46.13,46.13,0,0,0,738.67,501V394.62h31.51Z" transform="translate(-0.34 -0.5)"/><path class="cls-1" d="M822.44,441.52c0-17.9-.36-32.58-1.43-46.9h27.92l1.79,28.64h.72c8.59-16.47,28.64-32.58,57.28-32.58,24,0,61.22,14.32,61.22,73.75V567.89H938.43V468c0-27.93-10.38-51.2-40.09-51.2-20.77,0-36.88,14.68-42.25,32.23A45.28,45.28,0,0,0,854,463.71V567.89H822.44Z" transform="translate(-0.34 -0.5)"/><path class="cls-1" d="M1057.64,344.86v49.76h45.11v24h-45.11V512c0,21.48,6.09,33.66,23.63,33.66a70.23,70.23,0,0,0,18.26-2.15l1.43,23.63c-6.08,2.5-15.75,4.29-27.92,4.29-14.68,0-26.49-4.65-34-13.24-9-9.31-12.17-24.71-12.17-45.11V418.61H1000v-24h26.85V353.09Z" transform="translate(-0.34 -0.5)"/></svg>