<?xml version="1.0" standalone="no"?>
<!DOCTYPE svg PUBLIC "-//W3C//DTD SVG 20010904//EN"
 "http://www.w3.org/TR/2001/REC-SVG-20010904/DTD/svg10.dtd">
<svg version="1.0" xmlns="http://www.w3.org/2000/svg"
 width="226.000000pt" height="200.000000pt" viewBox="0 0 226.000000 200.000000"
 preserveAspectRatio="xMidYMid meet">

<g transform="translate(0.000000,200.000000) scale(0.100000,-0.100000)"
fill="#1F1695" stroke="none">
<path d="M197 1986 c-92 -34 -164 -109 -188 -199 -6 -24 -9 -139 -7 -295 l3
-257 29 -53 c32 -57 81 -102 143 -130 34 -15 76 -17 373 -17 331 0 336 0 382
23 26 13 66 44 88 68 74 81 75 85 75 389 0 254 -1 273 -21 316 -26 55 -79 111
-137 141 -41 22 -51 23 -372 25 -260 2 -338 0 -368 -11z m701 -72 c49 -20 90
-60 113 -109 16 -35 19 -68 19 -279 0 -273 -5 -301 -65 -361 -61 -62 -83 -65
-426 -65 -335 0 -352 3 -411 66 -54 58 -58 81 -58 354 0 276 3 293 67 351 62
58 61 58 406 59 265 0 324 -3 355 -16z"/>
<path d="M1357 1986 c-96 -35 -167 -115 -187 -212 -7 -35 -10 -141 -8 -292 4
-266 6 -278 78 -356 22 -24 62 -55 88 -68 46 -23 51 -23 382 -23 297 0 339 2
373 17 62 28 111 73 143 130 l29 53 0 280 c0 269 -1 282 -22 321 -34 63 -66
97 -125 129 l-53 30 -330 2 c-260 2 -338 0 -368 -11z m706 -72 c45 -23 86 -63
108 -106 17 -34 19 -61 19 -288 0 -273 -4 -296 -58 -354 -59 -63 -76 -66 -411
-66 -212 0 -316 4 -345 12 -53 16 -118 81 -134 134 -15 52 -17 482 -1 537 13
49 63 105 114 128 36 17 72 19 358 19 273 0 323 -2 350 -16z"/>
<path d="M208 956 c-94 -26 -174 -105 -199 -199 -6 -24 -9 -139 -7 -295 3
-243 4 -259 25 -298 34 -63 66 -97 125 -129 l53 -30 345 0 345 0 53 29 c57 32
102 81 130 143 15 33 17 73 17 308 0 304 -1 308 -75 389 -22 24 -62 55 -88 68
-46 22 -54 23 -362 25 -233 2 -327 -1 -362 -11z m676 -68 c53 -16 118 -81 134
-134 8 -28 12 -120 12 -278 0 -257 -4 -282 -58 -340 -60 -63 -74 -66 -425 -66
-351 0 -358 1 -418 67 -57 61 -59 71 -59 343 0 273 4 296 58 354 59 63 76 66
411 66 212 0 316 -4 345 -12z"/>
<path d="M1385 961 c-86 -24 -158 -81 -197 -159 -22 -46 -23 -54 -23 -317 0
-235 2 -275 17 -308 28 -62 73 -111 130 -143 l53 -29 345 0 345 0 53 30 c59
32 91 66 125 129 21 39 22 52 22 321 l0 280 -29 53 c-32 57 -81 102 -143 130
-33 15 -78 17 -353 19 -173 1 -328 -2 -345 -6z m673 -77 c49 -20 90 -60 113
-109 17 -36 19 -68 19 -293 0 -274 -2 -284 -59 -345 -60 -66 -67 -67 -418 -67
-351 0 -365 3 -425 66 -54 58 -58 83 -58 340 0 158 4 250 12 278 15 50 80 118
128 133 22 7 148 11 343 12 257 1 314 -2 345 -15z"/>
</g>
</svg>
