<svg width="24" height="24" viewBox="0 0 24 24" fill="none" xmlns="http://www.w3.org/2000/svg">
<path d="M21.9979 2.2942H16.9655C16.7015 2.2942 16.4874 2.50823 16.4874 2.77228V11.5729H13.2073V7.66655V0.478078C13.2073 0.214031 12.9932 0 12.7292 0H9.8533C9.5893 0 9.37522 0.214031 9.37522 0.478078V7.18842H8.31875V4.54181C8.31875 4.27777 8.10467 4.06373 7.84067 4.06373C7.57667 4.06373 7.3626 4.27777 7.3626 4.54181V7.18842H6.84538C6.58138 7.18842 6.3673 7.40245 6.3673 7.6665V9.99239H3.92033V8.22309C3.92033 7.95905 3.70625 7.74502 3.44225 7.74502C3.17825 7.74502 2.96417 7.95905 2.96417 8.22309V9.99244H2.00206C1.73806 9.99244 1.52399 10.2065 1.52399 10.4705V23.5219C1.52399 23.7859 1.73806 24 2.00206 24H21.9979C22.2619 24 22.476 23.7859 22.476 23.5219V2.77228C22.476 2.50823 22.2619 2.2942 21.9979 2.2942ZM6.36725 23.0438H2.48014V10.9486H6.36725V23.0438ZM12.2511 23.0438H7.32341V8.14462H12.251V23.0438H12.2511ZM12.2511 7.18842H10.3314V0.956156H12.2511V7.18842ZM16.487 23.0438H13.2073V12.529H16.487V23.0438ZM21.5198 23.0438H17.4436V3.25036H21.5198V23.0438Z" fill="black"/>
<path d="M8.73168 9.32971C8.46768 9.32971 8.2536 9.54374 8.2536 9.80779V10.4426C8.2536 10.7066 8.46763 10.9206 8.73168 10.9206C8.99568 10.9206 9.20976 10.7066 9.20976 10.4426V9.80779C9.20976 9.54379 8.99568 9.32971 8.73168 9.32971Z" fill="black"/>
<path d="M10.771 9.32971C10.507 9.32971 10.2929 9.54374 10.2929 9.80779V10.4426C10.2929 10.7066 10.507 10.9206 10.771 10.9206C11.035 10.9206 11.2491 10.7066 11.2491 10.4426V9.80779C11.2491 9.54379 11.035 9.32971 10.771 9.32971Z" fill="black"/>
<path d="M11.2808 4.94531C11.0168 4.94531 10.8027 5.15934 10.8027 5.42339V6.05817C10.8027 6.32222 11.0168 6.53625 11.2808 6.53625C11.5448 6.53625 11.7588 6.32222 11.7588 6.05817V5.42339C11.7589 5.15934 11.5448 4.94531 11.2808 4.94531Z" fill="black"/>
<path d="M11.2808 2.44714C11.0168 2.44714 10.8027 2.66117 10.8027 2.92522V3.56C10.8027 3.82405 11.0168 4.03808 11.2808 4.03808C11.5448 4.03808 11.7588 3.82405 11.7588 3.56V2.92522C11.7589 2.66117 11.5448 2.44714 11.2808 2.44714Z" fill="black"/>
<path d="M8.73168 12.113C8.46768 12.113 8.2536 12.3271 8.2536 12.5911V13.2259C8.2536 13.4899 8.46763 13.704 8.73168 13.704C8.99568 13.704 9.20976 13.4899 9.20976 13.2259V12.5911C9.20976 12.3271 8.99568 12.113 8.73168 12.113Z" fill="black"/>
<path d="M10.771 12.113C10.507 12.113 10.2929 12.3271 10.2929 12.5911V13.2259C10.2929 13.4899 10.507 13.704 10.771 13.704C11.035 13.704 11.2491 13.4899 11.2491 13.2259V12.5911C11.2491 12.3271 11.035 12.113 10.771 12.113Z" fill="black"/>
<path d="M8.73168 14.701C8.46768 14.701 8.2536 14.9151 8.2536 15.1791V15.814C8.2536 16.078 8.46763 16.292 8.73168 16.292C8.99568 16.292 9.20976 16.078 9.20976 15.814V15.1792C9.20976 14.9151 8.99568 14.701 8.73168 14.701Z" fill="black"/>
<path d="M10.771 14.701C10.507 14.701 10.2929 14.9151 10.2929 15.1791V15.814C10.2929 16.078 10.507 16.292 10.771 16.292C11.035 16.292 11.2491 16.078 11.2491 15.814V15.1792C11.2491 14.9151 11.035 14.701 10.771 14.701Z" fill="black"/>
<path d="M8.73168 17.4844C8.46768 17.4844 8.2536 17.6984 8.2536 17.9625V18.5973C8.2536 18.8613 8.46763 19.0754 8.73168 19.0754C8.99568 19.0754 9.20976 18.8613 9.20976 18.5973V17.9625C9.20976 17.6984 8.99568 17.4844 8.73168 17.4844Z" fill="black"/>
<path d="M10.771 17.4844C10.507 17.4844 10.2929 17.6984 10.2929 17.9625V18.5973C10.2929 18.8613 10.507 19.0754 10.771 19.0754C11.035 19.0754 11.2491 18.8613 11.2491 18.5973V17.9625C11.2491 17.6984 11.035 17.4844 10.771 17.4844Z" fill="black"/>
<path d="M8.73168 20.2678C8.46768 20.2678 8.2536 20.4819 8.2536 20.7459V21.3807C8.2536 21.6448 8.46763 21.8588 8.73168 21.8588C8.99568 21.8588 9.20976 21.6448 9.20976 21.3807V20.7459C9.20976 20.4819 8.99568 20.2678 8.73168 20.2678Z" fill="black"/>
<path d="M10.771 20.2678C10.507 20.2678 10.2929 20.4819 10.2929 20.7459V21.3807C10.2929 21.6448 10.507 21.8588 10.771 21.8588C11.035 21.8588 11.2491 21.6448 11.2491 21.3807V20.7459C11.2491 20.4819 11.035 20.2678 10.771 20.2678Z" fill="black"/>
<path d="M18.6731 9.32971C18.4091 9.32971 18.1951 9.54374 18.1951 9.80779V10.4426C18.1951 10.7066 18.4091 10.9206 18.6731 10.9206C18.9371 10.9206 19.1512 10.7066 19.1512 10.4426V9.80779C19.1512 9.54379 18.9371 9.32971 18.6731 9.32971Z" fill="black"/>
<path d="M20.4575 9.32971C20.1935 9.32971 19.9794 9.54374 19.9794 9.80779V10.4426C19.9794 10.7066 20.1935 10.9206 20.4575 10.9206C20.7215 10.9206 20.9356 10.7066 20.9356 10.4426V9.80779C20.9356 9.54379 20.7215 9.32971 20.4575 9.32971Z" fill="black"/>
<path d="M18.6731 12.113C18.4091 12.113 18.1951 12.3271 18.1951 12.5911V13.2259C18.1951 13.4899 18.4091 13.704 18.6731 13.704C18.9371 13.704 19.1512 13.4899 19.1512 13.2259V12.5911C19.1512 12.3271 18.9371 12.113 18.6731 12.113Z" fill="black"/>
<path d="M20.4575 12.113C20.1935 12.113 19.9794 12.3271 19.9794 12.5911V13.2259C19.9794 13.4899 20.1935 13.704 20.4575 13.704C20.7215 13.704 20.9356 13.4899 20.9356 13.2259V12.5911C20.9356 12.3271 20.7215 12.113 20.4575 12.113Z" fill="black"/>
<path d="M18.6731 14.701C18.4091 14.701 18.1951 14.9151 18.1951 15.1791V15.814C18.1951 16.078 18.4091 16.292 18.6731 16.292C18.9371 16.292 19.1512 16.078 19.1512 15.814V15.1792C19.1512 14.9151 18.9371 14.701 18.6731 14.701Z" fill="black"/>
<path d="M20.4575 14.701C20.1935 14.701 19.9794 14.9151 19.9794 15.1791V15.814C19.9794 16.078 20.1935 16.292 20.4575 16.292C20.7215 16.292 20.9356 16.078 20.9356 15.814V15.1792C20.9356 14.9151 20.7215 14.701 20.4575 14.701Z" fill="black"/>
<path d="M18.6731 4.0166C18.4091 4.0166 18.1951 4.23063 18.1951 4.49468V5.12951C18.1951 5.39355 18.4091 5.60759 18.6731 5.60759C18.9371 5.60759 19.1512 5.39355 19.1512 5.12951V4.49468C19.1512 4.23063 18.9371 4.0166 18.6731 4.0166Z" fill="black"/>
<path d="M20.4575 4.0166C20.1935 4.0166 19.9794 4.23063 19.9794 4.49468V5.12951C19.9794 5.39355 20.1935 5.60759 20.4575 5.60759C20.7215 5.60759 20.9356 5.39355 20.9356 5.12951V4.49468C20.9356 4.23063 20.7215 4.0166 20.4575 4.0166Z" fill="black"/>
<path d="M18.6731 6.60461C18.4091 6.60461 18.1951 6.81865 18.1951 7.08269V7.71747C18.1951 7.98152 18.4091 8.19555 18.6731 8.19555C18.9371 8.19555 19.1512 7.98152 19.1512 7.71747V7.08269C19.1512 6.81865 18.9371 6.60461 18.6731 6.60461Z" fill="black"/>
<path d="M20.4575 6.60461C20.1935 6.60461 19.9794 6.81865 19.9794 7.08269V7.71747C19.9794 7.98152 20.1935 8.19555 20.4575 8.19555C20.7215 8.19555 20.9356 7.98152 20.9356 7.71747V7.08269C20.9356 6.81865 20.7215 6.60461 20.4575 6.60461Z" fill="black"/>
<path d="M18.6731 17.4844C18.4091 17.4844 18.1951 17.6984 18.1951 17.9625V18.5973C18.1951 18.8613 18.4091 19.0754 18.6731 19.0754C18.9371 19.0754 19.1512 18.8613 19.1512 18.5973V17.9625C19.1512 17.6984 18.9371 17.4844 18.6731 17.4844Z" fill="black"/>
<path d="M20.4575 17.4844C20.1935 17.4844 19.9794 17.6984 19.9794 17.9625V18.5973C19.9794 18.8613 20.1935 19.0754 20.4575 19.0754C20.7215 19.0754 20.9356 18.8613 20.9356 18.5973V17.9625C20.9356 17.6984 20.7215 17.4844 20.4575 17.4844Z" fill="black"/>
<path d="M18.6731 20.2678C18.4091 20.2678 18.1951 20.4819 18.1951 20.7459V21.3807C18.1951 21.6448 18.4091 21.8588 18.6731 21.8588C18.9371 21.8588 19.1512 21.6448 19.1512 21.3807V20.7459C19.1512 20.4819 18.9371 20.2678 18.6731 20.2678Z" fill="black"/>
<path d="M20.4575 20.2678C20.1935 20.2678 19.9794 20.4819 19.9794 20.7459V21.3807C19.9794 21.6448 20.1935 21.8588 20.4575 21.8588C20.7215 21.8588 20.9356 21.6448 20.9356 21.3807V20.7459C20.9356 20.4819 20.7215 20.2678 20.4575 20.2678Z" fill="black"/>
<path d="M5.31587 11.8788H3.58257C3.31857 11.8788 3.10449 12.0928 3.10449 12.3569C3.10449 12.6209 3.31857 12.8349 3.58257 12.8349H5.31591C5.57991 12.8349 5.79399 12.6209 5.79399 12.3569C5.79399 12.0928 5.57991 11.8788 5.31587 11.8788Z" fill="black"/>
<path d="M5.31587 13.731H3.58257C3.31857 13.731 3.10449 13.945 3.10449 14.209C3.10449 14.4731 3.31857 14.6871 3.58257 14.6871H5.31591C5.57991 14.6871 5.79399 14.4731 5.79399 14.209C5.79399 13.945 5.57991 13.731 5.31587 13.731Z" fill="black"/>
<path d="M5.31587 15.6431H3.58257C3.31857 15.6431 3.10449 15.8571 3.10449 16.1211C3.10449 16.3852 3.31857 16.5992 3.58257 16.5992H5.31591C5.57991 16.5992 5.79399 16.3852 5.79399 16.1211C5.79399 15.8571 5.57991 15.6431 5.31587 15.6431Z" fill="black"/>
<path d="M5.31587 17.4952H3.58257C3.31857 17.4952 3.10449 17.7093 3.10449 17.9733C3.10449 18.2374 3.31857 18.4514 3.58257 18.4514H5.31591C5.57991 18.4514 5.79399 18.2374 5.79399 17.9733C5.79399 17.7093 5.57991 17.4952 5.31587 17.4952Z" fill="black"/>
<path d="M5.31587 19.4072H3.58257C3.31857 19.4072 3.10449 19.6213 3.10449 19.8853C3.10449 20.1494 3.31857 20.3634 3.58257 20.3634H5.31591C5.57991 20.3634 5.79399 20.1494 5.79399 19.8853C5.79399 19.6213 5.57991 19.4072 5.31587 19.4072Z" fill="black"/>
<path d="M5.31587 21.2594H3.58257C3.31857 21.2594 3.10449 21.4734 3.10449 21.7375C3.10449 22.0015 3.31857 22.2156 3.58257 22.2156H5.31591C5.57991 22.2156 5.79399 22.0015 5.79399 21.7375C5.79399 21.4734 5.57991 21.2594 5.31587 21.2594Z" fill="black"/>
<path d="M15.4103 13.2043H14.1867C13.9227 13.2043 13.7086 13.4184 13.7086 13.6824C13.7086 13.9465 13.9227 14.1605 14.1867 14.1605H15.4103C15.6743 14.1605 15.8884 13.9465 15.8884 13.6824C15.8884 13.4184 15.6743 13.2043 15.4103 13.2043Z" fill="black"/>
<path d="M15.4103 15.4475H14.1867C13.9227 15.4475 13.7086 15.6615 13.7086 15.9256C13.7086 16.1896 13.9227 16.4037 14.1867 16.4037H15.4103C15.6743 16.4037 15.8884 16.1896 15.8884 15.9256C15.8884 15.6616 15.6743 15.4475 15.4103 15.4475Z" fill="black"/>
<path d="M15.4103 17.7417H14.1867C13.9227 17.7417 13.7086 17.9557 13.7086 18.2198C13.7086 18.4838 13.9227 18.6979 14.1867 18.6979H15.4103C15.6743 18.6979 15.8884 18.4838 15.8884 18.2198C15.8884 17.9558 15.6743 17.7417 15.4103 17.7417Z" fill="black"/>
<path d="M15.4103 20.0869H14.1867C13.9227 20.0869 13.7086 20.3009 13.7086 20.565C13.7086 20.829 13.9227 21.0431 14.1867 21.0431H15.4103C15.6743 21.0431 15.8884 20.829 15.8884 20.565C15.8884 20.3009 15.6743 20.0869 15.4103 20.0869Z" fill="black"/>
<path d="M7.84063 2.05579C7.57663 2.05579 7.36255 2.26982 7.36255 2.53386V3.10757C7.36255 3.37161 7.57663 3.58565 7.84063 3.58565C8.10463 3.58565 8.31871 3.37161 8.31871 3.10757V2.53386C8.31871 2.26982 8.10463 2.05579 7.84063 2.05579Z" fill="black"/>
</svg>
