<svg id="Layer_1" data-name="Layer 1" xmlns="http://www.w3.org/2000/svg" viewBox="0 0 400.66 723.52"><defs><style>.cls-1{fill:#f46f16;}.cls-2{fill:#632d0b;}</style></defs><polygon class="cls-1" points="185.16 0 141.85 75 228.46 75 185.16 0"/><polygon class="cls-1" points="357.16 0 313.85 75 400.46 75 357.16 0"/><polygon class="cls-1" points="400.66 89 141.85 89 229.32 240.5 313.19 240.5 400.66 89"/><polygon class="cls-2" points="313.19 240.5 229.32 240.5 271.25 313.13 313.19 240.5"/><path class="cls-1" d="M338.42,266.58,313.06,310.5l-41.93,72.63L229.2,310.5l-24.11-41.76C204.86,297.9,200.37,368.32,154,440,101.18,521.65,26.72,554.37.34,564.56L42.61,720.81,204.44,724c30.89-26.89,94-89.21,128.56-191C374.68,410.32,349.62,305.08,338.42,266.58Z" transform="translate(-0.34 -0.5)"/></svg>